<?xml version="1.0" encoding="UTF-8" standalone="no"?>
<!-- Created with Inkscape (http://www.inkscape.org/) -->
<svg id="svg2" xmlns:rdf="http://www.w3.org/1999/02/22-rdf-syntax-ns#" xmlns="http://www.w3.org/2000/svg" height="205" width="205" version="1.0" xmlns:cc="http://web.resource.org/cc/" xmlns:xlink="http://www.w3.org/1999/xlink" xmlns:dc="http://purl.org/dc/elements/1.1/">
 <metadata id="metadata2248">
  <rdf:RDF>
   <cc:Work rdf:about="">
    <dc:format>image/svg+xml</dc:format>
    <dc:type rdf:resource="http://purl.org/dc/dcmitype/StillImage"/>
   </cc:Work>
  </rdf:RDF>
 </metadata>
 <defs id="defs4">
  <filter id="filter3157">
   <feGaussianBlur id="feGaussianBlur3159" stdDeviation="5"/>
  </filter>
  <linearGradient id="linearGradient4094" y2="174.94" gradientUnits="userSpaceOnUse" x2="205" gradientTransform="translate(-102.5,-62.5)" y1="85" x1="205">
   <stop id="stop9083" stop-color="#fff" offset="0"/>
   <stop id="stop9085" stop-color="#fff" stop-opacity="0" offset="1"/>
  </linearGradient>
  <radialGradient id="radialGradient4097" gradientUnits="userSpaceOnUse" cy="212.5" cx="205" gradientTransform="matrix(1 0 0 .50262 -102.5 43.194)" r="95.5">
   <stop id="stop7292" stop-color="#fff" stop-opacity=".71134" offset="0"/>
   <stop id="stop7294" stop-color="#fff" stop-opacity="0" offset="1"/>
  </radialGradient>
  <radialGradient id="radialGradient4100" gradientUnits="userSpaceOnUse" cy="230.01" cx="157.25" gradientTransform="translate(-54.75,-62.5)" r="95.5">
   <stop id="stop4611" stop-color="#fff" offset="0"/>
   <stop id="stop4613" stop-color="red" offset="1"/>
  </radialGradient>
  <linearGradient id="linearGradient4102" y2="261" gradientUnits="userSpaceOnUse" x2="205" gradientTransform="translate(-102.5,-62.5)" y1="69" x1="205">
   <stop id="stop4048" stop-color="#5d0000" offset="0"/>
   <stop id="stop4050" stop-color="red" offset="1"/>
  </linearGradient>
 </defs>
 <path id="path9984" d="m43 13l-30 30 65 65-65 65 30 30 65-65 65 65 30-30-65-65 65-65-30-30-65 65-65-65z" fill-opacity=".68047" fill-rule="evenodd" filter="url(#filter3157)"/>
 <path id="path3712" d="m37.5 7.5l-30 30 65 65-65 65 30 30 65-65 65 65 30-30-65-65 65-65-30-30-65 65-65-65z" fill-rule="evenodd" stroke="url(#linearGradient4102)" stroke-width="2" fill="url(#radialGradient4100)"/>
 <path id="path3722" d="m72.5 102.5l5 5-60 60 20 20 65-65 65 65 20-20-60-60 5-5 65 65-30 30-65-65-65 65-30-30 65-65z" fill-rule="evenodd" fill="url(#radialGradient4097)"/>
 <path id="path8186" d="m37.5 22.5l-15 15 80.04 74.94 79.96-74.94-15-15-65 65-65-65z" fill-rule="evenodd" fill="url(#linearGradient4094)"/>
</svg>
